<svg xmlns="http://www.w3.org/2000/svg" version="1.1" xmlns:xlink="http://www.w3.org/1999/xlink" xmlns:svgjs="http://svgjs.com/svgjs" width="512" height="512" x="0" y="0" viewBox="0 0 128 128" style="enable-background:new 0 0 512 512" xml:space="preserve" class=""><g><path d="M126.064 29.564c-.009-.054-.007-.111-.021-.164a1.749 1.749 0 0 0-.171-.417c-.025-.045-.063-.081-.093-.123a1.737 1.737 0 0 0-.182-.238c-.041-.042-.093-.071-.138-.109a1.721 1.721 0 0 0-.214-.168l-.013-.005-.011-.008-14.621-8.377a1.751 1.751 0 0 0-1.74 0l-14.629 8.376-.011.008-.013.005a1.725 1.725 0 0 0-.215.169c-.045.037-.1.067-.137.108a1.736 1.736 0 0 0-.184.241c-.029.042-.066.077-.091.121a1.753 1.753 0 0 0-.171.417c-.014.051-.012.106-.021.158a1.719 1.719 0 0 0-.038.291v3.565l-13.011-8.148a1.713 1.713 0 0 0 .036-.266V10.374a1.719 1.719 0 0 0-.038-.286c-.009-.054-.007-.111-.021-.164a1.749 1.749 0 0 0-.171-.416 1.771 1.771 0 0 0-.113-.15 1.732 1.732 0 0 0-.161-.211 1.786 1.786 0 0 0-.166-.13 1.719 1.719 0 0 0-.188-.147h-.01l-.007-.015L64.87.479a1.751 1.751 0 0 0-1.74 0L48.5 8.855l-.012.009h-.01a1.718 1.718 0 0 0-.189.148 1.782 1.782 0 0 0-.165.129 1.736 1.736 0 0 0-.163.214 1.776 1.776 0 0 0-.111.147 1.749 1.749 0 0 0-.171.417c-.014.051-.012.106-.021.158a1.719 1.719 0 0 0-.038.291V25a1.713 1.713 0 0 0 .036.267l-13.008 8.147V29.85a1.719 1.719 0 0 0-.038-.286c-.009-.054-.007-.111-.021-.164a1.749 1.749 0 0 0-.171-.417c-.025-.045-.063-.081-.093-.123a1.737 1.737 0 0 0-.182-.238c-.041-.042-.093-.071-.138-.109a1.721 1.721 0 0 0-.214-.168l-.013-.005-.011-.008-14.623-8.377a1.751 1.751 0 0 0-1.74 0L2.778 28.331l-.011.008-.013.005a1.725 1.725 0 0 0-.215.169c-.045.037-.1.067-.137.108a1.736 1.736 0 0 0-.184.241c-.029.042-.066.077-.091.121a1.753 1.753 0 0 0-.171.417c-.014.051-.012.106-.021.158a1.719 1.719 0 0 0-.038.291v14.626a1.75 1.75 0 0 0 .911 1.536L16.523 53.5v20.038L2.778 81.41l-.011.008-.013.005a1.725 1.725 0 0 0-.215.169c-.045.037-.1.067-.137.108a1.736 1.736 0 0 0-.184.241c-.029.042-.066.077-.091.121a1.753 1.753 0 0 0-.171.417c-.014.051-.012.106-.021.158a1.719 1.719 0 0 0-.038.291v14.626a1.75 1.75 0 0 0 .913 1.536l14.625 7.983a1.724 1.724 0 0 0 .255.1c.047.017.091.042.139.054a1.692 1.692 0 0 0 .889 0c.048-.013.092-.038.139-.054a1.724 1.724 0 0 0 .255-.1l12.418-6.779 16.1 10.719v7.253a1.75 1.75 0 0 0 .911 1.536l14.625 7.983a1.724 1.724 0 0 0 .255.1c.047.017.091.042.139.054a1.692 1.692 0 0 0 .889 0c.048-.013.092-.038.139-.054a1.724 1.724 0 0 0 .255-.1l14.621-7.985a1.75 1.75 0 0 0 .911-1.536v-7.253l16.1-10.719 12.418 6.779a1.724 1.724 0 0 0 .255.1c.047.017.091.042.139.054a1.692 1.692 0 0 0 .889 0c.048-.013.092-.038.139-.054a1.724 1.724 0 0 0 .255-.1l14.62-7.981a1.75 1.75 0 0 0 .911-1.536V82.929a1.719 1.719 0 0 0-.038-.286c-.009-.054-.007-.111-.021-.164a1.749 1.749 0 0 0-.171-.417c-.025-.045-.063-.081-.093-.123a1.737 1.737 0 0 0-.182-.238c-.041-.042-.093-.071-.138-.109a1.721 1.721 0 0 0-.214-.168l-.013-.005-.011-.008-13.745-7.872V53.5l13.714-7.486a1.75 1.75 0 0 0 .911-1.536V29.85a1.719 1.719 0 0 0-.036-.286Zm-51.472 74.285L64 109.631l-10.592-5.782-.448-.245L64 97.282l11.04 6.318ZM31.148 43.437l-11.125 6.072V38.872L31.148 32.8ZM18.273 76.569l11.04 6.322-.448.245-10.592 5.782-10.592-5.782-.448-.245Zm14.478 4.258-12.728-7.29V53.5l11.594-6.329 16.008 10.416v12.768Zm18.374-56.866V13.324L62.25 19.4v10.634Zm25.75 0L65.75 30.034V19.4l11.125-6.074ZM64 50.278 75.04 56.6l-.448.245L64 62.627l-10.592-5.782-.448-.245Zm-12.875 9.309L62.25 65.66V76.3l-11.125-6.075ZM65.75 65.66l11.125-6.073v10.638L65.75 76.3Zm14.625-8.073 16.008-10.419 11.594 6.332v20.038l-12.728 7.29-14.874-10.473Zm27.6-18.715v10.637l-11.123-6.072V32.8ZM96.852 96.516V85.878l11.125 6.073v10.637Zm23.467-13.38-10.592 5.782-10.593-5.782-.448-.245 11.04-6.322 11.04 6.322ZM109.727 23.49l11.04 6.322-.448.245-10.592 5.782-10.593-5.782-.448-.245ZM93.413 44.924l-14.846 9.663-12.817-7.34V34.022l11.74-6.41 15.861 9.932v6.93a1.746 1.746 0 0 0 .062.45ZM64 4.015l11.039 6.323L64.484 16.1l-.484.264-.484-.264-10.555-5.763Zm-13.49 23.6 11.74 6.41v13.222l-12.817 7.34-14.846-9.663a1.746 1.746 0 0 0 .061-.45v-6.93ZM18.273 23.49l11.04 6.322-.448.245-10.592 5.782-10.592-5.782-.448-.245ZM5.4 32.8l11.125 6.073v10.636L5.4 43.437Zm0 53.079 11.125 6.073v10.637L5.4 96.516Zm14.625 6.073 11.125-6.073v10.637l-11.125 6.072ZM34.551 98.1a1.733 1.733 0 0 0 .1-.547v-13.78l14.841-10.452 12.758 6.964v13.966l-13.75 7.872-.011.008-.013.005a1.725 1.725 0 0 0-.215.169c-.045.037-.1.067-.137.108a1.736 1.736 0 0 0-.184.241c-.029.042-.066.077-.091.121a1.753 1.753 0 0 0-.171.417c-.014.051-.012.106-.021.158a1.719 1.719 0 0 0-.038.291v3.166Zm16.574 11.967v-3.477l11.125 6.073V123.3l-11.125-6.072ZM65.75 123.3v-10.636l11.125-6.073v10.638Zm14.625-19.659a1.719 1.719 0 0 0-.038-.286c-.009-.054-.007-.111-.021-.164a1.749 1.749 0 0 0-.171-.417c-.025-.045-.063-.081-.093-.123a1.737 1.737 0 0 0-.182-.238c-.041-.042-.093-.071-.138-.109a1.721 1.721 0 0 0-.214-.168l-.013-.005-.011-.008-13.744-7.872V80.285l12.758-6.964 14.844 10.452v13.781a1.733 1.733 0 0 0 .1.547l-13.074 8.707Zm31.1-1.054V91.951l11.125-6.073v10.638Zm0-53.079V38.872L122.6 32.8v10.637Z" fill="#17ba2c" data-original="#000000" class=""></path></g></svg>