<svg xmlns="http://www.w3.org/2000/svg" version="1.1" xmlns:xlink="http://www.w3.org/1999/xlink" xmlns:svgjs="http://svgjs.com/svgjs" width="512" height="512" x="0" y="0" viewBox="0 0 609.658 609.658" style="enable-background:new 0 0 512 512" xml:space="preserve" class=""><g><path fill-rule="evenodd" d="M276.374 425.737a40.644 40.644 0 0 1-65.03 0c-3.367-4.489-9.736-5.399-14.225-2.032s-5.399 9.736-2.032 14.225a60.966 60.966 0 0 0 97.544 0 10.161 10.161 0 0 0-16.257-12.193z" clip-rule="evenodd" fill="#3bca31" data-original="#000000" class=""></path><path d="M167.654 350.546a35.564 35.564 0 1 0 35.563 35.563c-.001-19.641-15.923-35.563-35.563-35.563zm0 50.805c-8.418 0-15.241-6.824-15.241-15.241 0-8.418 6.824-15.241 15.241-15.241s15.241 6.824 15.241 15.241-6.824 15.241-15.241 15.241zM320.066 350.546c-19.641 0-35.563 15.922-35.563 35.563s15.922 35.563 35.563 35.563 35.563-15.922 35.563-35.563-15.922-35.563-35.563-35.563zm0 50.805c-8.417 0-15.241-6.824-15.241-15.241 0-8.418 6.824-15.241 15.241-15.241 8.418 0 15.241 6.824 15.241 15.241s-6.824 15.241-15.241 15.241z" fill="#3bca31" data-original="#000000" class=""></path><path d="m425.739 358.97-30.086-15.038c-3.233-19.599-20.159-33.991-40.023-34.029H254.021v-22.191c13.997-4.949 22.393-19.262 19.883-33.894-2.511-14.632-15.197-25.328-30.044-25.328-14.846 0-27.533 10.696-30.043 25.328s5.886 28.945 19.883 33.894v22.191H132.091c-19.845.063-36.743 14.448-39.973 34.029L62.032 358.97a20.22 20.22 0 0 0-11.228 18.178v58.567a20.22 20.22 0 0 0 11.228 18.178l30.086 15.038c3.23 19.581 20.128 33.966 39.973 34.029h223.538c19.845-.063 36.743-14.448 39.973-34.029l30.086-15.038a20.22 20.22 0 0 0 11.228-18.178v-58.567a20.222 20.222 0 0 0-11.177-18.178zM243.86 248.938c5.612 0 10.161 4.549 10.161 10.161s-4.549 10.161-10.161 10.161-10.161-4.549-10.161-10.161 4.549-10.161 10.161-10.161zM71.126 377.147l20.322-10.161v78.889l-20.322-10.161zm304.825 85.168c0 11.223-9.098 20.322-20.322 20.322H132.091c-11.223 0-20.322-9.098-20.322-20.322V350.546c0-11.223 9.098-20.322 20.322-20.322h223.538c11.223 0 20.322 9.098 20.322 20.322zm40.643-26.601-20.322 10.161v-78.889l20.322 10.161z" fill="#3bca31" data-original="#000000" class=""></path><path d="M447.076 25.4c-89.639 0-162.573 59.258-162.573 132.091.031 7.943.938 15.859 2.703 23.604a291.862 291.862 0 0 0-43.346-3.282C109.402 177.812 0 268.975 0 381.029a177.164 177.164 0 0 0 28.674 95.654l-26.052 51.82a24.458 24.458 0 0 0 28.989 34.354l65.212-19.682a274.265 274.265 0 0 0 147.037 41.07c134.458 0 243.86-91.163 243.86-203.216a175.284 175.284 0 0 0-26.51-91.966 185.12 185.12 0 0 0 82.242-25.138l41.029 12.02a19.58 19.58 0 0 0 20.728-6.218 18.787 18.787 0 0 0 2.286-20.891L591.563 218.1a112.783 112.783 0 0 0 18.086-60.609c0-72.833-72.934-132.091-162.573-132.091zM243.86 563.924a253.23 253.23 0 0 1-139.894-40.349 10.167 10.167 0 0 0-5.578-1.677 9.968 9.968 0 0 0-2.936.437l-69.774 21.053a3.87 3.87 0 0 1-4.318-1.27 3.942 3.942 0 0 1-.569-4.542l28.694-57.033a10.16 10.16 0 0 0-.711-10.313 157.615 157.615 0 0 1-28.45-89.202c0-100.846 100.277-182.895 223.538-182.895 80.677 0 151.498 35.156 190.81 87.718l.183.244a157.96 157.96 0 0 1 32.545 94.933c-.002 100.847-100.279 182.896-223.54 182.896zm326.894-341.81 17.558 33.764-43.427-12.721a10.164 10.164 0 0 0-8.291 1.158 166.333 166.333 0 0 1-89.222 24.945 246.815 246.815 0 0 0-137.933-83.908 87.706 87.706 0 0 1-4.613-27.861c0-61.625 63.81-111.769 142.252-111.769S589.33 95.866 589.33 157.491a93.482 93.482 0 0 1-17.853 54.076 10.158 10.158 0 0 0-.723 10.547z" fill="#3bca31" data-original="#000000" class=""></path><path d="M447.076 127.008c-16.835 0-30.482 13.647-30.482 30.482s13.647 30.482 30.482 30.482 30.482-13.647 30.482-30.482-13.647-30.482-30.482-30.482zm0 40.644c-5.612 0-10.161-4.549-10.161-10.161s4.549-10.161 10.161-10.161 10.161 4.549 10.161 10.161-4.549 10.161-10.161 10.161zM528.363 127.008c-16.835 0-30.483 13.647-30.483 30.482s13.647 30.482 30.483 30.482c16.835 0 30.482-13.647 30.482-30.482s-13.647-30.482-30.482-30.482zm0 40.644c-5.612 0-10.161-4.549-10.161-10.161s4.549-10.161 10.161-10.161 10.161 4.549 10.161 10.161-4.549 10.161-10.161 10.161zM365.79 127.008c-16.835 0-30.482 13.647-30.482 30.482s13.647 30.482 30.482 30.482 30.482-13.647 30.482-30.482-13.647-30.482-30.482-30.482zm0 40.644c-5.612 0-10.161-4.549-10.161-10.161s4.549-10.161 10.161-10.161 10.161 4.549 10.161 10.161-4.55 10.161-10.161 10.161z" fill="#3bca31" data-original="#000000" class=""></path></g></svg>