<svg xmlns="http://www.w3.org/2000/svg" version="1.1" xmlns:xlink="http://www.w3.org/1999/xlink" xmlns:svgjs="http://svgjs.com/svgjs" width="512" height="512" x="0" y="0" viewBox="0 0 484.324 484.324" style="enable-background:new 0 0 512 512" xml:space="preserve" class=""><g><path d="M453.189 62.27H31.135C13.94 62.27 0 48.331 0 31.135S13.94 0 31.135 0h422.054c17.195 0 31.135 13.94 31.135 31.135S470.385 62.27 453.189 62.27zM31.135 13.838c-9.553 0-17.297 7.744-17.297 17.297s7.744 17.297 17.297 17.297h422.054c9.553 0 17.297-7.744 17.297-17.297s-7.744-17.297-17.297-17.297H31.135z" fill="#19ce74" data-original="#000000" class=""></path><path d="M428.973 339.027H55.351c-11.464 0-20.757-9.293-20.757-20.757V55.351a6.92 6.92 0 0 1 6.919-6.919H442.81a6.92 6.92 0 0 1 6.919 6.919V318.27c.001 11.464-9.292 20.757-20.756 20.757zM48.432 62.27v256a6.92 6.92 0 0 0 6.919 6.919h373.622a6.92 6.92 0 0 0 6.919-6.919v-256H48.432zM242.162 484.324c-19.106 0-34.595-15.489-34.595-34.595s15.489-34.595 34.595-34.595 34.595 15.489 34.595 34.595c-.023 19.097-15.498 34.572-34.595 34.595zm0-55.351c-11.464 0-20.757 9.293-20.757 20.757s9.293 20.757 20.757 20.757c11.464 0 20.757-9.293 20.757-20.757s-9.293-20.757-20.757-20.757z" fill="#19ce74" data-original="#000000" class=""></path><path d="M235.243 332.108h13.838v89.946h-13.838zM145.297 166.054h-62.27a6.92 6.92 0 0 1-6.919-6.919v-62.27a6.92 6.92 0 0 1 6.919-6.919h62.27a6.92 6.92 0 0 1 6.919 6.919v62.27a6.919 6.919 0 0 1-6.919 6.919zm-55.351-13.838h48.432v-48.432H89.946v48.432zM186.811 103.784h122.811v13.838H186.811zM186.811 145.297h221.405v13.838H186.811zM145.297 283.35h-62.27a6.92 6.92 0 0 1-6.919-6.919v-62.27a6.92 6.92 0 0 1 6.919-6.919h62.27a6.92 6.92 0 0 1 6.919 6.919v62.27a6.918 6.918 0 0 1-6.919 6.919zm-55.351-13.837h48.432V221.08H89.946v48.433zM186.811 221.08h122.811v13.838H186.811zM186.811 262.594h221.405v13.838H186.811z" fill="#19ce74" data-original="#000000" class=""></path></g></svg>